Coordinates
version=1
nRows=18
nColumns=22
inDegrees=yes

Units are S.I. units (second, meters, Newtons, ...)
If the header above contains a line with 'inDegrees', this indicates whether rotational values are in degrees (yes) or radians (no).

endheader
time	pelvis_tilt	pelvis_list	pelvis_rotation	pelvis_tx	pelvis_ty	pelvis_tz	hip_flexion_r	hip_adduction_r	hip_rotation_r	knee_angle_r	ankle_angle_r	subtalar_angle_r	hip_flexion_l	hip_adduction_l	hip_rotation_l	knee_angle_l	ankle_angle_l	subtalar_angle_l	lumbar_extension	lumbar_bending	lumbar_rotation
      1.41000000	      4.71948558	     -4.55594917	      4.40442312	     -1.36218246	      0.95257759	     -0.60058699	     -5.14357988	      4.99194581	     -9.46765308	     -7.82440641	      9.07752090	     -0.45016751	     -1.38220839	     -4.05676224	    -12.02177473	    -18.27153124	     22.60665778	     -8.75611510	    -11.50388994	      5.78044214	     -8.68249117
      1.42000000	      4.69480679	     -4.60294753	      4.47153736	     -1.36156356	      0.95240376	     -0.60108787	     -5.15640080	      5.02158776	     -9.52900925	     -7.82908715	      9.13729690	     -0.42003363	     -1.29151837	     -4.08474732	    -11.87993465	    -18.45417705	     22.73458744	     -8.88059146	    -11.49003960	      5.83321263	     -8.70295785
      1.43000000	      4.65115737	     -4.65579422	      4.54537172	     -1.36096574	      0.95219165	     -0.60163323	     -5.12764485	      5.05015933	     -9.59702470	     -7.87193051	      9.20619957	     -0.38185269	     -1.16600370	     -4.11365722	    -11.71295200	    -18.65795738	     22.86590167	     -9.04802894	    -11.46108900	      5.89379742	     -8.73516431
      1.44000000	      4.59465665	     -4.71264612	      4.61460375	     -1.36035644	      0.95195800	     -0.60220425	     -5.06794046	      5.07736407	     -9.66137357	     -7.94969542	      9.28233310	     -0.33492144	     -1.02898448	     -4.13885052	    -11.53478115	    -18.85571922	     22.98518826	     -9.24884622	    -11.42179781	      5.95985100	     -8.75903143
      1.45000000	      4.58366574	     -4.77292448	      4.68948186	     -1.35968232	      0.95178029	     -0.60281293	     -5.07642213	      5.11356557	     -9.69899856	     -7.99862240	      9.39900915	     -0.30764357	     -0.94991908	     -4.16979784	    -11.37149060	    -19.04239551	     23.10589521	     -9.32586796	    -11.43555356	      6.03533973	     -8.77516886
      1.46000000	      4.49140813	     -4.82153989	      4.77523185	     -1.35902654	      0.95146613	     -0.60346810	     -4.95535909	      5.12040822	     -9.80743860	     -8.12890080	      9.48541591	     -0.24006579	     -0.75177576	     -4.17717421	    -11.17456165	    -19.27977689	     23.25677875	     -9.59021773	    -11.35746856	      6.08861047	     -8.81125021
      1.47000000	      4.44770962	     -4.87281040	      4.85405274	     -1.35831143	      0.95121709	     -0.60414441	     -4.89413368	      5.13400641	     -9.87705068	     -8.25230308	      9.61066810	     -0.18375530	     -0.62404537	     -4.18603774	    -10.98969928	    -19.49129517	     23.40156682	     -9.77715577	    -11.34037572	      6.15021359	     -8.82835242
      1.48000000	      4.44622033	     -4.92697610	      4.92668246	     -1.35753795	      0.95102169	     -0.60484166	     -4.88205710	      5.15370926	     -9.91004884	     -8.37541502	      9.76947664	     -0.15062275	     -0.55775619	     -4.19757048	    -10.81546673	    -19.68173205	     23.53975227	     -9.85547875	    -11.37647508	      6.21831955	     -8.82641914
      1.49000000	      4.38897184	     -4.95474638	      5.02136452	     -1.35677025	      0.95072128	     -0.60560342	     -4.77210014	      5.13125788	    -10.02505006	     -8.57632941	      9.93404551	     -0.08734150	     -0.40116953	     -4.17443375	    -10.60977769	    -19.92566925	     23.70176734	    -10.07809077	    -11.35054855	      6.24904454	     -8.87240409
      1.50000000	      4.34919027	     -4.99143589	      5.10771794	     -1.35597489	      0.95045200	     -0.60641126	     -4.65980669	      5.11400058	    -10.08696229	     -8.82125442	     10.09023695	     -0.02600041	     -0.28900166	     -4.14962350	    -10.38057068	    -20.12225119	     23.82771578	    -10.32147070	    -11.35290605	      6.29802889	     -8.88731020
      1.51000000	      4.35871436	     -5.00686833	      5.20411832	     -1.35509806	      0.95023128	     -0.60727019	     -4.59996654	      5.07636967	    -10.15668062	     -9.08360461	     10.30196854	      0.01287516	     -0.23835483	     -4.10894436	    -10.17881826	    -20.32021633	     23.98342525	    -10.43944403	    -11.41181113	      6.32608294	     -8.93173529
      1.52000000	      4.35477528	     -5.01110659	      5.30716768	     -1.35420071	      0.94998146	     -0.60820154	     -4.49045395	      5.01576018	    -10.24590745	     -9.42055344	     10.53059650	      0.05972912	     -0.18376623	     -4.04496124	     -9.93864460	    -20.50055942	     24.11834748	    -10.59748377	    -11.46189175	      6.34468842	     -8.97839068
      1.53000000	      4.34043807	     -5.00293682	      5.41691833	     -1.35329010	      0.94970639	     -0.60918827	     -4.33635855	      4.93457223	    -10.33719476	     -9.82677076	     10.75974019	      0.12196749	     -0.12301677	     -3.95879042	     -9.66149603	    -20.67359896	     24.22710595	    -10.82509821	    -11.50514065	      6.34926477	     -9.01581643
      1.54000000	      4.36263713	     -4.96625208	      5.52697957	     -1.35232171	      0.94945684	     -0.61021553	     -4.19001697	      4.81897420	    -10.42790918	    -10.31117131	     11.04459812	      0.17117716	     -0.12253703	     -3.84699135	     -9.43121391	    -20.82445111	     24.36587885	    -10.94491140	    -11.59715862	      6.32352876	     -9.08544662
      1.55000000	      4.35881176	     -4.91243198	      5.64473504	     -1.35136961	      0.94914463	     -0.61130574	     -3.96412230	      4.67155990	    -10.53983744	    -10.89797975	     11.34318673	      0.23392238	     -0.09225722	     -3.70304235	     -9.13992596	    -20.97895852	     24.47243521	    -11.13133367	    -11.67190522	      6.27694975	     -9.13731736
      1.56000000	      4.36383474	     -4.83021704	      5.75812929	     -1.35037697	      0.94881215	     -0.61241219	     -3.69679637	      4.48509960	    -10.64693717	    -11.59747415	     11.67684862	      0.29120265	     -0.08508549	     -3.52951765	     -8.86874372	    -21.12171564	     24.58605396	    -11.29539959	    -11.76205305	      6.19523954	     -9.21025901
      1.57000000	      4.36684390	     -4.72356056	      5.86484346	     -1.34936997	      0.94844331	     -0.61355332	     -3.36560476	      4.25936781	    -10.74172346	    -12.42373154	     12.02495673	      0.34384535	     -0.08941712	     -3.32364053	     -8.59690477	    -21.24876023	     24.70000036	    -11.46747972	    -11.86307757	      6.08613391	     -9.28406471
      1.58000000	      4.37076074	     -4.59116348	      5.95602838	     -1.34831456	      0.94803817	     -0.61469398	     -2.97389122	      3.99544128	    -10.80716905	    -13.38064051	     12.38393144	      0.39032017	     -0.11010623	     -3.08667256	     -8.32887729	    -21.36512271	     24.81063046	    -11.66022772	    -11.97134620	      5.94244696	     -9.36021852
